 <svg  version="1.0" xmlns="http://www.w3.org/2000/svg"  width="48.000000pt" height="48.000000pt" viewBox="0 0 48.000000 48.000000"  preserveAspectRatio="xMidYMid meet">  <g transform="translate(0.000000,48.000000) scale(0.100000,-0.100000)" fill="#f1f1f1" stroke="none"> <path d="M22 457 c-21 -22 -22 -32 -22 -218 0 -258 -20 -239 241 -239 258 0 239 -20 239 241 0 258 20 239 -241 239 -191 0 -196 0 -217 -23z m294 -66 c54 -24 58 -33 30 -60 -21 -20 -25 -20 -57 -7 -69 29 -134 -12 -134 -84 0 -72 65 -113 134 -84 33 14 36 13 59 -10 l25 -24 -34 -21 c-76 -47 -154 -36 -212 28 -62 68 -62 154 0 222 53 59 117 72 189 40z"/> </g> </svg> 